<svg xmlns="http://www.w3.org/2000/svg" xmlns:xlink="http://www.w3.org/1999/xlink" width="500" zoomAndPan="magnify" viewBox="0 0 375 374.999991" height="500" preserveAspectRatio="xMidYMid meet" version="1.0"><defs><g/></defs><rect x="-37.5" width="450" fill="#ffffff" y="-37.499999" height="449.999989" fill-opacity="1"/><rect x="-37.5" width="450" fill="#ffffff" y="-37.499999" height="449.999989" fill-opacity="1"/><g fill="#ffffff" fill-opacity="1"><g transform="translate(86.174468, 199.874987)"><g><path d="M 12 0 L 1.5625 0 L 9.125 -20.828125 L 28.609375 -20.828125 C 31.015625 -20.828125 32.738281 -20.335938 33.78125 -19.359375 C 34.832031 -18.378906 34.984375 -16.851562 34.234375 -14.78125 L 33.125 -11.78125 C 33.03125 -11.539062 32.914062 -11.320312 32.78125 -11.125 C 32.644531 -10.9375 32.457031 -10.726562 32.21875 -10.5 L 29.859375 -8.609375 C 29.472656 -8.265625 29.101562 -8.035156 28.75 -7.921875 C 28.394531 -7.804688 28.039062 -7.75 27.6875 -7.75 L 26.375 -7.75 L 30.171875 -0.1875 L 30.109375 0 L 18.8125 0 L 15.328125 -9.15625 Z M 17.734375 -15.8125 L 16.03125 -11.109375 L 20.421875 -11.109375 C 20.867188 -11.109375 21.3125 -11.265625 21.75 -11.578125 C 22.1875 -11.898438 22.476562 -12.265625 22.625 -12.671875 L 23.171875 -14.234375 C 23.335938 -14.679688 23.316406 -15.054688 23.109375 -15.359375 C 22.910156 -15.660156 22.597656 -15.8125 22.171875 -15.8125 Z M 17.734375 -15.8125 "/></g></g></g><g fill="#ffffff" fill-opacity="1"><g transform="translate(117.847146, 199.874987)"><g><path d="M 13.46875 -2.65625 C 13.257812 -2.101562 12.898438 -1.695312 12.390625 -1.4375 L 10.046875 -0.25 C 9.765625 -0.0820312 9.46875 0 9.15625 0 L 1.5625 0 L 9.125 -20.828125 L 33.53125 -20.828125 L 31.71875 -15.8125 L 18.234375 -15.8125 L 17.15625 -12.765625 L 29.28125 -12.765625 L 27.546875 -8.0625 L 15.421875 -8.0625 Z M 13.46875 -2.65625 "/></g></g></g><g fill="#ffffff" fill-opacity="1"><g transform="translate(146.80049, 199.874987)"><g><path d="M 13.0625 -2.65625 C 12.84375 -2.101562 12.476562 -1.695312 11.96875 -1.4375 L 9.65625 -0.25 C 9.382812 -0.0820312 9.078125 0 8.734375 0 L 2.234375 0 L 8.828125 -18.171875 C 9.046875 -18.734375 9.410156 -19.140625 9.921875 -19.390625 L 12.21875 -20.578125 C 12.5 -20.742188 12.8125 -20.828125 13.15625 -20.828125 L 19.640625 -20.828125 Z M 13.0625 -2.65625 "/></g></g></g><g fill="#ffffff" fill-opacity="1"><g transform="translate(163.020967, 199.874987)"><g><path d="M 6.625 -15.8125 L 8.453125 -20.828125 L 35.640625 -20.828125 L 33.828125 -15.8125 L 25.65625 -15.8125 L 20.890625 -2.65625 C 20.679688 -2.101562 20.320312 -1.695312 19.8125 -1.4375 L 17.5 -0.25 C 17.226562 -0.0820312 16.921875 0 16.578125 0 L 9.0625 0 L 14.78125 -15.8125 Z M 6.625 -15.8125 "/></g></g></g><g fill="#ffffff" fill-opacity="1"><g transform="translate(193.893841, 199.874987)"><g><path d="M 11.546875 0 L 1.5625 0 L 9.125 -20.828125 L 19.109375 -20.828125 L 16.125 -12.578125 L 23.578125 -12.578125 L 26.5625 -20.828125 L 36.578125 -20.828125 L 29.984375 -2.65625 C 29.765625 -2.125 29.410156 -1.71875 28.921875 -1.4375 L 26.59375 -0.25 C 26.3125 -0.0820312 26 0 25.65625 0 L 19.015625 0 L 21.921875 -8.03125 L 17.125 -8.03125 L 15.171875 -9.984375 Z M 11.546875 0 "/></g></g></g><g fill="#ffffff" fill-opacity="1"><g transform="translate(226.366323, 199.874987)"><g><path d="M 27.296875 -20.828125 L 37.34375 -20.828125 L 32 -6.078125 C 31.789062 -5.523438 31.5 -5.066406 31.125 -4.703125 C 30.75 -4.335938 30.359375 -4.039062 29.953125 -3.8125 L 24.03125 -0.484375 C 23.75 -0.304688 23.460938 -0.179688 23.171875 -0.109375 C 22.890625 -0.0351562 22.597656 0 22.296875 0 L 5.5625 0 C 4.457031 0 3.65625 -0.390625 3.15625 -1.171875 C 2.65625 -1.953125 2.609375 -2.894531 3.015625 -4 L 9.125 -20.828125 L 19.109375 -20.828125 L 13.921875 -6.59375 C 13.773438 -6.164062 13.796875 -5.796875 13.984375 -5.484375 C 14.171875 -5.179688 14.488281 -5.03125 14.9375 -5.03125 L 20 -5.03125 C 20.425781 -5.03125 20.847656 -5.179688 21.265625 -5.484375 C 21.679688 -5.796875 21.960938 -6.164062 22.109375 -6.59375 Z M 27.296875 -20.828125 "/></g></g></g><g fill="#ffffff" fill-opacity="1"><g transform="translate(259.606613, 199.874987)"><g><path d="M 29.765625 -12 L 28.484375 -11.328125 C 29.523438 -11.085938 30.234375 -10.613281 30.609375 -9.90625 C 30.984375 -9.207031 30.976562 -8.328125 30.59375 -7.265625 L 29.828125 -5.125 C 29.671875 -4.675781 29.40625 -4.242188 29.03125 -3.828125 C 28.664062 -3.410156 28.238281 -3.0625 27.75 -2.78125 L 23.234375 -0.484375 C 22.953125 -0.304688 22.660156 -0.179688 22.359375 -0.109375 C 22.066406 -0.0351562 21.769531 0 21.46875 0 L 1.5625 0 L 9.125 -20.828125 L 26.375 -20.828125 C 28.78125 -20.828125 30.503906 -20.335938 31.546875 -19.359375 C 32.597656 -18.378906 32.75 -16.851562 32 -14.78125 L 31.84375 -14.34375 C 31.664062 -13.882812 31.394531 -13.445312 31.03125 -13.03125 C 30.675781 -12.625 30.253906 -12.28125 29.765625 -12 Z M 13.03125 -5.03125 L 18.171875 -5.03125 C 18.597656 -5.03125 19.015625 -5.144531 19.421875 -5.375 C 19.828125 -5.613281 20.148438 -6.050781 20.390625 -6.6875 C 20.617188 -7.320312 20.613281 -7.75 20.375 -7.96875 C 20.144531 -8.195312 19.816406 -8.3125 19.390625 -8.3125 L 14.203125 -8.3125 Z M 19.78125 -12.453125 C 20.207031 -12.453125 20.632812 -12.570312 21.0625 -12.8125 C 21.488281 -13.0625 21.804688 -13.503906 22.015625 -14.140625 C 22.253906 -14.785156 22.253906 -15.222656 22.015625 -15.453125 C 21.773438 -15.691406 21.457031 -15.8125 21.0625 -15.8125 L 16.921875 -15.8125 L 15.71875 -12.453125 Z M 19.78125 -12.453125 "/></g></g></g></svg>