<svg xmlns="http://www.w3.org/2000/svg" width="18" height="18" viewBox="0 0 18 18">
  <path d="M14.5375,9.5055c-0.0279-3.219,2.592-4.7715,2.7148-4.8633-1.4889-2.1924-3.7871-2.4922-4.5996-2.51C10.9316,2.0584,9.3857,3.1953,8.5898,3.1953c-0.8115,0-2.041-1.1709-3.373-1.1367C3.5762,2.0879,2.0898,3.0811,1.2744,4.5947c-1.6953,2.9688-0.4297,7.3261,1.1953,9.7461c0.8159,1.1641,1.7734,2.4678,3.0273,2.4209c1.2271-0.0506,1.6875-0.7852,3.1797-0.7852c1.4688,0,1.9024,0.7852,3.1699,0.7569c1.3125-0.0186,2.1426-1.1709,2.9355-2.3486c0.9482-1.3477,1.3301-2.6757,1.3418-2.7432C16.043,11.6006,14.5693,9.5508,14.5375,9.5055z M12.0195,2.9395c0.7183-0.8809,1.2061-2.0801,1.0694-3.2988C12.041,0.7881,11.041,0.1748,9.9824,0.2051C9.9434,1.4473,10.5342,2.6855,11.2275,3.5303C11.875,4.3311,12.8203,4.9072,13.9316,4.8252C13.9609,3.5625,13.2588,2.3857,12.0195,2.9395z"/>
</svg>